# xmcd
#
# Track frame offsets:
#	150
#	23160
#	39520
#	55819
#	75006
#	93133
#	111402
#	128466
#	140174
#	154296
#	177218
#	195056
#	221552
#	241496
#	267713
#	278152
#	295963
#	315204
#
# Disc length: 4429 seconds
#
# Revision: 1
# Processed by: cddbd v1.5.1PL0 Copyright (c) Steve Scherf et al.
# Submitted via: audiograbber 1.83.01
#
DISCID=f3114b12
DTITLE=Various Artist - Вечеринка в стиле Disco 2. (Mix)
DYEAR=1900
DGENRE=
TTITLE0=Modjo. - Chillin. (Original Version)
TTITLE1=G-Starr. - Morning Lights. (Yeah, Yeah)
TTITLE2=Dj Antoine vs. Mad Mark. - (Yourg My) Disco Sensation.
TTITLE3=Mac Zimms. - Cha Cha Cha.
TTITLE4=Thompson Project feat. Gary L. - Messin With My Mind.
TTITLE5=Intrique. - Spanish Fly.
TTITLE6=Club Encounters. - Groovy Tek!
TTITLE7=Tim J. - Reality Check.
TTITLE8=Temper. - Give It Up. (Full Extended Club Mix)
TTITLE9=Profools. - Upgrade II.
TTITLE10=Mahogany. - Don't You Feel It Too?
TTITLE11=Club Patrol. - Get Loose.
TTITLE12=Joff Roach and Tim J. - Table's Turning.
TTITLE13=Re-Flex. - Lui.
TTITLE14=PB 2000. - In The Jungle.
TTITLE15=Cenogingrz. - Git Down.
TTITLE16=E. Graig. - Dutch Drum Attack.
TTITLE17=Sunflowerz. - Pumpin' The Bass.
EXTD=
EXTT0=
EXTT1=
EXTT2=
EXTT3=
EXTT4=
EXTT5=
EXTT6=
EXTT7=
EXTT8=
EXTT9=
EXTT10=
EXTT11=
EXTT12=
EXTT13=
EXTT14=
EXTT15=
EXTT16=
EXTT17=
PLAYORDER=
